# WaveFront *.obj file (generated by Autodesk ATF)

mtllib UE306_Sleeve_test.mtl

g Solid1

v -2.113500 -0.697000 -1.099000
v -2.113500 -0.697000 0.950000
v -2.113500 7.900000 -1.099000
v -2.113500 7.900000 0.950000
v -2.094394 -0.697000 -1.195054
v -2.094394 7.900000 -1.195054
v -2.039984 -0.697000 -1.276484
v -2.039984 7.900000 -1.276484
v -1.958554 -0.697000 -1.330894
v -1.958554 7.900000 -1.330894
v -1.862500 -0.697000 -1.350000
v -1.862500 7.900000 -1.350000
v -1.300000 -0.697000 -0.850000
v -1.300000 -0.697000 0.850000
v -1.300000 7.500000 -0.850000
v -1.300000 7.500000 0.850000
v -1.000000 7.500000 -0.650000
v -1.000000 7.500000 0.650000
v -1.000000 7.900000 -0.650000
v -1.000000 7.900000 0.650000
v 1.000000 7.500000 -0.650000
v 1.000000 7.500000 0.650000
v 1.000000 7.900000 -0.650000
v 1.000000 7.900000 0.650000
v 1.300000 -0.697000 -0.850000
v 1.300000 -0.697000 0.850000
v 1.300000 7.500000 -0.850000
v 1.300000 7.500000 0.850000
v 1.862500 -0.697000 -1.350000
v 1.862500 7.900000 -1.350000
v 1.958554 -0.697000 -1.330894
v 1.958554 7.900000 -1.330894
v 2.039984 -0.697000 -1.276484
v 2.039984 7.900000 -1.276484
v 2.094394 -0.697000 -1.195054
v 2.094394 7.900000 -1.195054
v 2.113500 -0.697000 -1.099000
v 2.113500 -0.697000 0.950000
v 2.113500 7.900000 -1.099000
v 2.113500 7.900000 0.950000
vt -16.819880 0.500723 0.000000
vt -16.819880 0.250361 0.000000
vt -16.819880 0.000000 0.000000
vt -16.819880 -0.250361 0.000000
vt -16.819880 -0.500723 0.000000
vt 5.016500 -0.500723 0.000000
vt 5.016500 -0.250361 0.000000
vt 5.016500 0.000000 0.000000
vt 5.016500 0.250361 0.000000
vt 5.016500 0.500723 0.000000
vt 2.283460 -5.368290 0.000000
vt 2.527436 -5.319760 0.000000
vt 2.734269 -5.181559 0.000000
vt 2.872470 -4.974726 0.000000
vt 2.921000 -4.730750 0.000000
vt 2.921000 4.730750 0.000000
vt 2.872470 4.974726 0.000000
vt 2.734269 5.181559 0.000000
vt 2.527436 5.319760 0.000000
vt 2.283460 5.368290 0.000000
vt -2.921000 5.368290 0.000000
vt -2.921000 -5.368290 0.000000
vt 1.651000 -3.302000 0.000000
vt -2.667000 -3.302000 0.000000
vt -2.667000 3.302000 0.000000
vt 1.651000 3.302000 0.000000
vt 21.836380 8.413750 0.000000
vt 0.000000 8.413750 0.000000
vt 0.000000 -1.047750 0.000000
vt 21.836380 -1.047750 0.000000
vt -16.819880 0.500723 0.000000
vt -16.819880 0.250361 0.000000
vt -16.819880 0.000000 0.000000
vt -16.819880 -0.250361 0.000000
vt -16.819880 -0.500723 0.000000
vt 5.016500 -0.500723 0.000000
vt 5.016500 -0.250361 0.000000
vt 5.016500 0.000000 0.000000
vt 5.016500 0.250361 0.000000
vt 5.016500 0.500723 0.000000
vt -5.080000 0.000000 0.000000
vt -0.000000 0.000000 0.000000
vt -0.000000 1.016000 0.000000
vt -5.080000 1.016000 0.000000
vt -3.302000 0.000000 0.000000
vt -0.000000 0.000000 0.000000
vt -0.000000 1.016000 0.000000
vt -3.302000 1.016000 0.000000
vt -5.080000 0.000000 0.000000
vt -0.000000 0.000000 0.000000
vt -0.000000 1.016000 0.000000
vt -5.080000 1.016000 0.000000
vt -3.302000 0.000000 0.000000
vt -0.000000 0.000000 0.000000
vt -0.000000 1.016000 0.000000
vt -3.302000 1.016000 0.000000
vt 2.283460 -11.803380 0.000000
vt 2.283460 10.033000 0.000000
vt -2.921000 10.033000 0.000000
vt -2.921000 -11.803380 0.000000
vt 0.762000 1.143000 0.000000
vt 0.762000 6.223000 0.000000
vt 4.064000 6.223000 0.000000
vt 4.064000 1.143000 0.000000
vt 4.572000 0.381000 0.000000
vt 4.572000 6.985000 0.000000
vt 0.254000 6.985000 0.000000
vt 0.254000 0.381000 0.000000
vt 5.842000 8.413750 0.000000
vt 5.793470 8.657726 0.000000
vt 5.655269 8.864559 0.000000
vt 5.448436 9.002760 0.000000
vt 5.204460 9.051290 0.000000
vt 0.000000 9.051290 0.000000
vt 0.000000 -1.685290 0.000000
vt 5.204460 -1.685290 0.000000
vt 5.448436 -1.636760 0.000000
vt 5.655269 -1.498559 0.000000
vt 5.793470 -1.291726 0.000000
vt 5.842000 -1.047750 0.000000
vt 4.064000 6.223000 0.000000
vt 4.064000 1.143000 0.000000
vt 0.762000 1.143000 0.000000
vt 0.762000 6.223000 0.000000
vt -2.283460 10.033000 0.000000
vt -2.283460 -11.803380 0.000000
vt 2.921000 -11.803380 0.000000
vt 2.921000 10.033000 0.000000
vt 6.604000 -1.770380 0.000000
vt 6.604000 19.049999 0.000000
vt 0.000000 19.049999 0.000000
vt 0.000000 -1.770380 0.000000
vt 4.318000 -1.770380 0.000000
vt 4.318000 19.049999 0.000000
vt 0.000000 19.049999 0.000000
vt 0.000000 -1.770380 0.000000
vt 6.604000 -1.770380 0.000000
vt 6.604000 19.049999 0.000000
vt 0.000000 19.049999 0.000000
vt 0.000000 -1.770380 0.000000
vt 4.318000 -1.770380 0.000000
vt 4.318000 19.049999 0.000000
vt 0.000000 19.049999 0.000000
vt 0.000000 -1.770380 0.000000
vt 9.051290 -1.770380 0.000000
vt 9.051290 20.066000 0.000000
vt -1.685290 20.066000 0.000000
vt -1.685290 -1.770380 0.000000
vn 0.000000 0.000000 -2.540000
vn -0.972016 0.000000 -2.346654
vn -1.796051 0.000000 -1.796051
vn -2.346654 0.000000 -0.972016
vn -2.540000 0.000000 0.000000
vn -2.540000 0.000000 0.000000
vn -2.346654 0.000000 -0.972016
vn -1.796051 0.000000 -1.796051
vn -0.972016 0.000000 -2.346654
vn 0.000000 0.000000 -2.540000
vn 0.000000 -2.540000 0.000000
vn 0.000000 -2.540000 0.000000
vn 0.000000 -2.540000 0.000000
vn 0.000000 -2.540000 0.000000
vn 0.000000 -2.540000 0.000000
vn 0.000000 -2.540000 0.000000
vn 0.000000 -2.540000 0.000000
vn 0.000000 -2.540000 0.000000
vn 0.000000 -2.540000 0.000000
vn 0.000000 -2.540000 0.000000
vn 0.000000 -2.540000 0.000000
vn 0.000000 -2.540000 0.000000
vn 0.000000 -2.540000 0.000000
vn 0.000000 -2.540000 0.000000
vn 0.000000 -2.540000 0.000000
vn 0.000000 -2.540000 0.000000
vn 0.000000 0.000000 -2.540000
vn 0.000000 0.000000 -2.540000
vn 0.000000 0.000000 -2.540000
vn 0.000000 0.000000 -2.540000
vn 2.540000 0.000000 0.000000
vn 2.346654 0.000000 -0.972016
vn 1.796051 0.000000 -1.796051
vn 0.972016 0.000000 -2.346654
vn 0.000000 0.000000 -2.540000
vn 0.000000 0.000000 -2.540000
vn 0.972016 0.000000 -2.346654
vn 1.796051 0.000000 -1.796051
vn 2.346654 0.000000 -0.972016
vn 2.540000 0.000000 0.000000
vn 0.000000 0.000000 2.540000
vn 0.000000 0.000000 2.540000
vn 0.000000 0.000000 2.540000
vn 0.000000 0.000000 2.540000
vn -2.540000 0.000000 0.000000
vn -2.540000 0.000000 0.000000
vn -2.540000 0.000000 0.000000
vn -2.540000 0.000000 0.000000
vn 0.000000 0.000000 -2.540000
vn 0.000000 0.000000 -2.540000
vn 0.000000 0.000000 -2.540000
vn 0.000000 0.000000 -2.540000
vn 2.540000 0.000000 0.000000
vn 2.540000 0.000000 0.000000
vn 2.540000 0.000000 0.000000
vn 2.540000 0.000000 0.000000
vn 2.540000 0.000000 0.000000
vn 2.540000 0.000000 0.000000
vn 2.540000 0.000000 0.000000
vn 2.540000 0.000000 0.000000
vn 0.000000 -2.540000 0.000000
vn 0.000000 -2.540000 0.000000
vn 0.000000 -2.540000 0.000000
vn 0.000000 -2.540000 0.000000
vn 0.000000 -2.540000 0.000000
vn 0.000000 -2.540000 0.000000
vn 0.000000 -2.540000 0.000000
vn 0.000000 -2.540000 0.000000
vn 0.000000 2.540000 0.000000
vn 0.000000 2.540000 0.000000
vn 0.000000 2.540000 0.000000
vn 0.000000 2.540000 0.000000
vn 0.000000 2.540000 0.000000
vn 0.000000 2.540000 0.000000
vn 0.000000 2.540000 0.000000
vn 0.000000 2.540000 0.000000
vn 0.000000 2.540000 0.000000
vn 0.000000 2.540000 0.000000
vn 0.000000 2.540000 0.000000
vn 0.000000 2.540000 0.000000
vn 0.000000 2.540000 0.000000
vn 0.000000 2.540000 0.000000
vn 0.000000 2.540000 0.000000
vn 0.000000 2.540000 0.000000
vn -2.540000 0.000000 0.000000
vn -2.540000 0.000000 0.000000
vn -2.540000 0.000000 0.000000
vn -2.540000 0.000000 0.000000
vn 0.000000 0.000000 -2.540000
vn 0.000000 0.000000 -2.540000
vn 0.000000 0.000000 -2.540000
vn 0.000000 0.000000 -2.540000
vn -2.540000 0.000000 0.000000
vn -2.540000 0.000000 0.000000
vn -2.540000 0.000000 0.000000
vn -2.540000 0.000000 0.000000
vn 0.000000 0.000000 2.540000
vn 0.000000 0.000000 2.540000
vn 0.000000 0.000000 2.540000
vn 0.000000 0.000000 2.540000
vn 2.540000 0.000000 0.000000
vn 2.540000 0.000000 0.000000
vn 2.540000 0.000000 0.000000
vn 2.540000 0.000000 0.000000
vn 0.000000 0.000000 2.540000
vn 0.000000 0.000000 2.540000
vn 0.000000 0.000000 2.540000
vn 0.000000 0.000000 2.540000
usemtl 191,191,191
f 12/10/10 11/1/1 10/9/9
f 10/9/9 11/1/1 9/2/2
f 10/9/9 9/2/2 8/8/8
f 8/8/8 9/2/2 7/3/3
f 8/8/8 7/3/3 6/7/7
f 6/7/7 7/3/3 5/4/4
f 6/7/7 5/4/4 3/6/6
f 3/6/6 5/4/4 1/5/5
f 5/12/12 11/15/15 1/11/11
f 1/11/11 11/15/15 13/23/23
f 1/11/11 13/23/23 2/22/22
f 2/22/22 13/23/23 14/24/24
f 2/22/22 14/24/24 26/25/25
f 5/12/12 7/13/13 11/15/15
f 11/15/15 7/13/13 9/14/14
f 13/23/23 11/15/15 25/26/26
f 25/26/26 11/15/15 29/16/16
f 25/26/26 29/16/16 37/20/20
f 37/20/20 29/16/16 35/19/19
f 35/19/19 29/16/16 33/18/18
f 33/18/18 29/16/16 31/17/17
f 37/20/20 38/21/21 25/26/26
f 25/26/26 38/21/21 26/25/25
f 26/25/25 38/21/21 2/22/22
f 11/27/27 12/28/28 29/30/30
f 29/30/30 12/28/28 30/29/29
f 39/40/40 37/31/31 36/39/39
f 36/39/39 37/31/31 35/32/32
f 36/39/39 35/32/32 34/38/38
f 34/38/38 35/32/32 33/33/33
f 34/38/38 33/33/33 32/37/37
f 32/37/37 33/33/33 31/34/34
f 32/37/37 31/34/34 30/36/36
f 30/36/36 31/34/34 29/35/35
f 17/41/41 21/42/42 19/44/44
f 19/44/44 21/42/42 23/43/43
f 21/45/45 22/46/46 23/48/48
f 23/48/48 22/46/46 24/47/47
f 22/49/49 18/50/50 24/52/52
f 24/52/52 18/50/50 20/51/51
f 18/53/53 17/54/54 20/56/56
f 20/56/56 17/54/54 19/55/55
f 39/58/58 40/59/59 37/57/57
f 37/57/57 40/59/59 38/60/60
f 17/62/62 27/68/68 21/61/61
f 21/61/61 27/68/68 28/65/65
f 21/61/61 28/65/65 22/64/64
f 22/64/64 28/65/65 18/63/63
f 18/63/63 28/65/65 16/66/66
f 18/63/63 16/66/66 15/67/67
f 27/68/68 17/62/62 15/67/67
f 15/67/67 17/62/62 18/63/63
f 10/70/70 8/71/71 12/69/69
f 12/69/69 8/71/71 6/72/72
f 12/69/69 6/72/72 3/73/73
f 12/69/69 3/73/73 19/81/81
f 19/81/81 3/73/73 4/74/74
f 19/81/81 4/74/74 20/84/84
f 20/84/84 4/74/74 40/75/75
f 20/84/84 40/75/75 24/83/83
f 24/83/83 40/75/75 23/82/82
f 23/82/82 40/75/75 39/76/76
f 23/82/82 39/76/76 30/80/80
f 30/80/80 39/76/76 36/77/77
f 30/80/80 36/77/77 34/78/78
f 34/78/78 32/79/79 30/80/80
f 23/82/82 30/80/80 19/81/81
f 19/81/81 30/80/80 12/69/69
f 1/86/86 2/87/87 3/85/85
f 3/85/85 2/87/87 4/88/88
f 16/90/90 28/91/91 14/89/89
f 14/89/89 28/91/91 26/92/92
f 28/94/94 27/95/95 26/93/93
f 26/93/93 27/95/95 25/96/96
f 27/98/98 15/99/99 25/97/97
f 25/97/97 15/99/99 13/100/100
f 15/102/102 16/103/103 13/101/101
f 13/101/101 16/103/103 14/104/104
f 40/106/106 4/107/107 38/105/105
f 38/105/105 4/107/107 2/108/108
# 40 vertices
# 108 texture params
# 108 normals
# 80 facets

# 1 groups
